# xmcd CD database file generated by MAGIX-FreeDB-PlayR v2.0beta1
# 
# Track frame offsets:
#      150
#      16042
#      28818
#      51132
#      63411
#      83431
#      108134
#      123159
#      138451
#      166360
#      181528
#      202131
#      216814
#      238369
#      259136
# 
# Disc length: 3834 seconds
# 
# Revision: 3 
# Processed by: cddbd v1.5.2PL0 Copyright (c) Steve Scherf et al.
# Submitted via: MAGIX-FreeDB-PlayR v2.0beta1
# 
DISCID=c80ef80f
DTITLE=Gardot, Melody - My one and only thrill
DYEAR=2010
DGENRE=Jazz
TTITLE0=Gardot, Melody - Baby I'm a fool
TTITLE1=Gardot, Melody - If the stars were mine
TTITLE2=Gardot, Melody - Who will comfort me
TTITLE3=Gardot, Melody - Your heart is as black as night
TTITLE4=Gardot, Melody - Lover undercover
TTITLE5=Gardot, Melody - Our love is easy
TTITLE6=Gardot, Melody - Les etoiles
TTITLE7=Gardot, Melody - The rain
TTITLE8=Gardot, Melody - My one and only thrill
TTITLE9=Gardot, Melody - Deep within the corners of my mind
TTITLE10=Gardot, Melody - Over the rainbow
TTITLE11=Gardot, Melody - If the stars were mine (Orchestral version)
TTITLE12=Gardot, Melody - Our love is easy (Chill Out mix)
TTITLE13=Gardot, Melody - Baby I'm a fool (Chill Out mix)
TTITLE14=Gardot, Melody - My one and only thrill (Chill Out mix)
EXTD=
EXTT0=
EXTT1=
EXTT2=
EXTT3=
EXTT4=
EXTT5=
EXTT6=
EXTT7=
EXTT8=
EXTT9=
EXTT10=
EXTT11=
EXTT12=
EXTT13=
EXTT14=
PLAYORDER=
